#!OML:ASF H:\Terrain\Patient Classification 1\PLAYGROUND\JustinFriday\JustinFriday.ASF
:FULLY-SPECIFIED
:DEGREES
1541
root -7.18769 17.4002 30.1113 -1.99611 8.23212 -11.1976
lowerback 7.71476 3.94498 9.80005
upperback 4.83517 5.86505 4.03786
thorax 1.30525 3.10777 -1.59694
lowerneck -8.46569 -3.59321 -6.11082
upperneck 23.3141 -5.2667 6.17235
head 8.99985 -2.33731 2.603
rclavicle 4.67144e-015 1.31198e-014
rhumerus -26.0349 -14.4919 -77.1483
rradius 25.2489
rwrist -367.407
rhand -13.7116 -26.6261
rfingers 7.12502
rthumb 12.4072 -56.2379
lclavicle 4.67144e-015 1.31198e-014
lhumerus -44.5032 29.4247 73.8932
lradius 12.3086
lwrist -25.723
lhand 15.0466 0.39307
lfingers 7.12502
lthumb 39.8955 25.6506
rfemur 20.455 4.59868 35.8272
rtibia 9.54166e-015
rfoot -10.5353 -0.420856
rtoes 13.7879
lfemur -31.504 2.95289 -4.78526
ltibia 25.1712
lfoot -19.3048 9.71993
ltoes -10.9006
1542
root -7.1499 17.3748 30.257 -2.14008 8.04895 -11.6155
lowerback 8.48391 4.01372 10.0514
upperback 4.43545 6.10969 4.08855
thorax 0.50635 3.18983 -1.78169
lowerneck -7.93277 -3.38905 -5.17451
upperneck 23.1905 -4.90726 5.09531
head 8.78111 -2.20415 2.12008
rclavicle 3.66758e-014 -5.60573e-014
rhumerus -26.8907 -14.6494 -77.0753
rradius 25.295
rwrist -367.365
rhand -13.8133 -26.4658
rfingers 7.12502
rthumb 12.3091 -56.0835
lclavicle 3.66758e-014 -5.60573e-014
lhumerus -45.3999 28.2811 74.0287
lradius 12.5997
lwrist -25.3581
lhand 15.9001 -0.176958
lfingers 7.12502
lthumb 40.6983 24.8346
rfemur 21.0927 4.60754 36.2657
rtibia -1.59028e-014
rfoot -10.5657 -0.510626
rtoes 11.1266
lfemur -31.545 4.09698 -4.8915
ltibia 25.6249
lfoot -18.5492 9.28854
ltoes -8.55011
1543
root -7.10785 17.376 30.3986 -2.21481 8.13475 -11.5293
lowerback 7.72325 4.069 9.89442
upperback 5.2005 6.00567 4.14065
thorax 1.70035 3.20429 -1.52351
lowerneck -8.98877 -3.24778 -5.25434
upperneck 23.2987 -4.63472 4.99639
head 8.99996 -2.07753 2.1148
rclavicle -5.93372e-014 -3.33958e-014
rhumerus -25.7175 -14.7765 -77.2593
rradius 25.0706
rwrist -367.511
rhand -14.1508 -26.2312
rfingers 7.12502
rthumb 11.9837 -55.8682
lclavicle -5.93372e-014 -3.33958e-014
lhumerus -44.355 27.6748 75.5221
lradius 13.0586
lwrist -24.5013
lhand 15.7178 -0.455125
lfingers 7.12502
lthumb 40.5269 24.6098
rfemur 21.6457 4.40399 36.0813
rtibia 2.54444e-014
rfoot -10.5606 -0.475982
rtoes 9.15615
lfemur -31.6268 5.02526 -5.65898
ltibia 26.2491
lfoot -17.4726 8.7913
ltoes -6.43725
1544
root -7.01755 17.4118 30.5233 -1.20611 9.47335 -8.56762
lowerback 7.81969 3.78352 7.44178
upperback 4.65529 5.52841 3.23841
thorax 0.856396 2.88293 -1.15616
lowerneck -8.41699 -3.43707 -5.8826
upperneck 23.3736 -4.86288 5.2135
head 8.95493 -2.22386 2.27956
rclavicle 1.31198e-014 1.70955e-014
rhumerus -26.4331 -14.6341 -77.1522
rradius 25.081
rwrist -367.857
rhand -14.7739 -25.9185
rfingers 7.12502
rthumb 11.3828 -55.5895
lclavicle 1.31198e-014 1.70955e-014
lhumerus -44.9047 26.1728 76.3954
lradius 13.5481
lwrist -22.9719
lhand 14.4961 -0.625585
lfingers 7.12502
lthumb 39.3771 24.7854
rfemur 21.4931 3.41009 32.2881
rtibia 1.90833e-014
rfoot -10.5775 -0.33335
rtoes 7.71553
lfemur -32.3305 5.21898 -10.4192
ltibia 26.6391
lfoot -16.2025 7.77358
ltoes -5.674
1545
root -6.99533 17.3721 30.6857 -1.90911 8.89286 -10.2084
lowerback 8.59362 3.8845 8.43
upperback 4.47372 5.83038 3.75624
thorax 0.314666 3.02298 -1.24779
lowerneck -7.90126 -3.40326 -5.8947
upperneck 23.3416 -4.81349 5.11965
head 8.8424 -2.21853 2.26178
rclavicle 7.00716e-014 -1.78906e-014
rhumerus -27.1612 -14.9759 -77.07
rradius 25.1424
rwrist -367.502
rhand -14.84 -25.8302
rfingers 7.12502
rthumb 11.3191 -55.5048
lclavicle 7.00716e-014 -1.78906e-014
lhumerus -45.4918 25.8027 76.2356
lradius 13.6518
lwrist -22.5693
lhand 14.6009 -0.963467
lfingers 7.12502
lthumb 39.4759 24.4186
rfemur 22.498 3.62211 34.268
rtibia -3.81667e-014
rfoot -10.198 -0.360269
rtoes 6.47329
lfemur -31.537 5.76712 -8.61608
ltibia 26.8534
lfoot -15.3799 7.71784
ltoes -4.33948
1546
root -6.96321 17.3496 30.8484 -2.48974 8.55393 -11.5548
lowerback 8.28738 3.91916 9.28358
upperback 4.99055 5.86302 4.22294
thorax 1.0743 3.08971 -1.17041
lowerneck -7.93883 -3.26014 -5.75002
upperneck 22.9551 -4.57717 4.91419
head 8.69353 -2.11762 2.18796
rclavicle -6.86801e-014 -5.12864e-014
rhumerus -26.6828 -15.2496 -77.2062
rradius 25.0751
rwrist -367.143
rhand -14.542 -26.1944
rfingers 7.12502
rthumb 11.6064 -55.853
lclavicle -6.86801e-014 -5.12864e-014
lhumerus -45.0695 26.5181 76.0124
lradius 13.4976
lwrist -22.9523
lhand 14.7794 -1.18432
lfingers 7.12502
lthumb 39.644 24.1481
rfemur 23.3696 3.63628 35.7795
rtibia 2.22639e-014
rfoot -9.76261 -0.239204
rtoes 6.11882
lfemur -30.7026 5.95257 -7.21496
ltibia 26.9931
lfoot -14.6753 7.70097
ltoes -1.13109
1547
root -6.89865 17.3716 31.0034 -2.1129 8.86424 -10.2635
lowerback 7.62609 4.07344 8.47903
upperback 5.27749 5.9136 3.63486
thorax 1.71863 3.13481 -1.27079
lowerneck -8.14992 -3.35803 -5.62288
upperneck 22.9114 -4.72804 4.94164
head 8.72429 -2.17149 2.157
rclavicle 3.49861e-014 -9.14409e-015
rhumerus -26.4684 -15.9451 -77.3764
rradius 25.031
rwrist -367.322
rhand -14.5295 -26.4229
rfingers 7.12502
rthumb 11.6185 -56.0808
lclavicle 3.49861e-014 -9.14409e-015
lhumerus -44.4205 26.6527 75.6758
lradius 13.1054
lwrist -23.8421
lhand 13.9783 -1.86902
lfingers 7.12502
lthumb 38.889 23.6827
rfemur 23.6993 3.40583 34.1404
rtibia 3.18055e-015
rfoot -9.35997 -0.0332637
rtoes 5.27381
lfemur -30.3756 5.51976 -9.0847
ltibia 27.1463
lfoot -14.4067 6.9134
ltoes 2.22645
1548
root -6.81671 17.3817 31.1588 -1.95507 8.98065 -9.49702
lowerback 7.03458 4.13704 8.02883
upperback 5.61773 5.88618 3.38299
thorax 2.37805 3.14198 -1.21315
lowerneck -8.56987 -3.32918 -5.39622
upperneck 23.029 -4.62589 4.57176
head 8.8229 -2.13421 1.99836
rclavicle 3.68746e-014 2.78299e-014
rhumerus -26.239 -16.2561 -77.3874
rradius 25.0544
rwrist -367.604
rhand -14.7675 -26.5408
rfingers 7.12502
rthumb 11.389 -56.2115
lclavicle 3.68746e-014 2.78299e-014
lhumerus -43.1316 26.6091 76.4035
lradius 14.5508
lwrist -17.783
lhand 15.3126 3.16241
lfingers 7.12502
lthumb 40.1458 28.3443
rfemur 24.2334 3.30851 33.0235
rtibia -5.08889e-014
rfoot -8.84701 0.101056
rtoes 3.18962
lfemur -29.9294 5.23208 -10.4068
ltibia 27.3701
lfoot -14.4481 5.8686
ltoes 2.75288
1549
root -6.74517 17.4033 31.3318 -1.32083 8.94704 -7.59801
lowerback 7.94541 4.30539 6.02368
upperback 4.48111 6.14798 2.79856
thorax 0.540494 3.15886 -0.892882
lowerneck -7.76041 -3.22043 -5.313
upperneck 23.9719 -4.53583 4.53594
head 8.98871 -2.09112 1.99993
rclavicle -4.07509e-014 1.23246e-014
rhumerus -28.4961 -16.3952 -76.8973
rradius 25.4416
rwrist -367.557
rhand -14.6911 -26.8948
rfingers 7.12502
rthumb 11.4626 -56.5614
lclavicle -4.07509e-014 1.23246e-014
lhumerus -45.051 26.5765 74.7798
lradius 13.8856
lwrist -19.5038
lhand 11.3151 -1.32573
lfingers 7.12502
lthumb 36.3726 24.8984
rfemur 24.5588 3.45826 30.7418
rtibia 7.31528e-014
rfoot -8.24639 0.247761
rtoes 0.45809
lfemur -29.4533 4.47686 -12.7428
ltibia 26.9965
lfoot -13.9639 5.99076
ltoes 2.91908
1550
root -6.6966 17.3879 31.5182 -2.05414 7.86408 -9.58367
lowerback 5.93718 4.70681 8.10027
upperback 6.25658 6.48686 3.33112
thorax 3.72916 3.49786 -1.16447
lowerneck -9.02161 -3.33886 -5.65896
upperneck 23.2996 -4.65854 4.92021
head 9.01747 -2.12851 2.1544
rclavicle 1.41137e-014 -5.08889e-014
rhumerus -26.125 -17.6826 -77.2565
rradius 25.1674
rwrist -367.161
rhand -14.5035 -26.8928
rfingers 7.12502
rthumb 11.6436 -56.5493
lclavicle 1.41137e-014 -5.08889e-014
lhumerus -42.2691 27.8707 75.4797
lradius 13.4509
lwrist -20.4753
lhand 9.81262 -1.87585
lfingers 7.12502
lthumb 34.9486 24.6922
rfemur 25.6144 4.1653 33.0464
rtibia -7.31528e-014
rfoot -7.35711 0.457763
rtoes -1.54704
lfemur -28.5779 4.621 -10.2518
ltibia 27.4056
lfoot -13.2892 5.81795
ltoes 4.48766
1551
root -6.59067 17.4237 31.6853 -1.19724 8.12712 -7.05394
lowerback 6.06969 4.7506 5.94934
upperback 5.52744 6.53409 2.52951
thorax 2.71589 3.42238 -0.899433
lowerneck -8.40058 -3.25675 -5.58937
upperneck 23.9576 -4.56704 4.78337
head 9.11869 -2.09643 2.11974
rclavicle 8.98507e-014 5.56597e-015
rhumerus -27.5492 -17.6391 -76.8569
rradius 25.2512
rwrist -367.296
rhand -14.5923 -26.6562
rfingers 7.12502
rthumb 11.558 -56.3175
lclavicle 8.98507e-014 5.56597e-015
lhumerus -43.4146 27.8093 74.5577
lradius 13.4852
lwrist -20.6298
lhand 8.63193 -2.39304
lfingers 7.12502
lthumb 33.8276 24.4288
rfemur 25.6603 4.18345 29.7639
rtibia -3.18055e-014
rfoot -6.59556 0.870422
rtoes -2.56028
lfemur -28.5671 3.60444 -13.5091
ltibia 27.5368
lfoot -12.6634 4.98283
ltoes 8.01856
1552
root -6.56803 17.4064 31.8916 -2.24786 6.47394 -10.0291
lowerback 5.4524 5.26731 8.52551
upperback 6.40463 7.18122 3.3068
thorax 4.27998 3.87853 -1.34664
lowerneck -9.01799 -3.23133 -5.35277
upperneck 23.8257 -4.56043 4.84957
head 9.18378 -2.0586 2.09377
rclavicle -8.10048e-015 -8.74653e-015
rhumerus -26.6174 -18.6032 -77.1422
rradius 24.7832
rwrist -366.953
rhand -14.7246 -26.0455
rfingers 7.12502
rthumb 11.4304 -55.7139
lclavicle -8.10048e-015 -8.74653e-015
lhumerus -41.9053 27.8828 74.9196
lradius 13.6082
lwrist -20.286
lhand 7.7939 -2.81082
lfingers 7.12502
lthumb 33.031 24.1828
rfemur 26.8842 5.29129 33.3594
rtibia -7.63333e-014
rfoot -5.16479 1.13121
rtoes -3.82726
lfemur -27.2843 2.87038 -9.15983
ltibia 27.8654
lfoot -12.0998 5.3404
ltoes 11.9519
1553
root -6.49944 17.4313 32.0791 -2.08724 6.15139 -9.18019
lowerback 6.98543 5.45244 7.3996
upperback 5.01633 7.63264 3.07591
thorax 1.87059 3.97058 -1.2723
lowerneck -8.14659 -3.16288 -5.68789
upperneck 25.1591 -4.52155 5.04388
head 9.49778 -2.05121 2.2474
rclavicle 1.24737e-014 -9.93923e-015
rhumerus -29.3233 -18.1655 -76.5138
rradius 24.7209
rwrist -367.838
rhand -15.535 -24.0172
rfingers 7.12502
rthumb 10.6488 -53.7273
lclavicle 1.24737e-014 -9.93923e-015
lhumerus -43.8665 25.6562 74.9233
lradius 14.7797
lwrist -18.0537
lhand 7.08316 -2.05763
lfingers 7.12502
lthumb 32.3548 25.0765
rfemur 27.3229 5.62511 32.2362
rtibia -3.49861e-014
rfoot -3.85588 1.51474
rtoes -4.68913
lfemur -26.6788 1.20339 -9.84156
ltibia 27.8889
lfoot -11.4411 6.23299
ltoes 11.6131
1554
root -6.38431 17.4669 32.2431 -1.40701 6.71339 -7.09709
lowerback 6.74703 5.27918 5.71857
upperback 4.61263 7.31992 2.4648
thorax 1.41181 3.76429 -0.994508
lowerneck -7.59614 -3.05267 -5.63673
upperneck 25.1912 -4.27632 4.54743
head 9.37819 -1.99057 2.09962
rclavicle 7.54388e-014 -3.22031e-014
rhumerus -30.0884 -17.4863 -76.4153
rradius 24.9128
rwrist -368.265
rhand -15.4471 -24.431
rfingers 7.12502
rthumb 10.7335 -54.1367
lclavicle 7.54388e-014 -3.22031e-014
lhumerus -44.466 26.6108 73.9939
lradius 14.9004
lwrist -18.2228
lhand 5.75639 -1.2125
lfingers 7.12502
lthumb 31.0912 26.1716
rfemur 27.2558 5.33984 29.3665
rtibia -5.08889e-014
rfoot -2.2906 1.99924
rtoes -4.68544
lfemur -26.6465 0.122818 -12.6452
ltibia 27.9739
lfoot -10.6789 6.32334
ltoes 7.04287
1555
root -6.352 17.4743 32.4358 -1.86153 5.69139 -8.65445
lowerback 5.70777 5.65993 7.06643
upperback 5.46521 7.75003 2.86133
thorax 3.0418 4.06305 -1.13387
lowerneck -8.45082 -3.20734 -6.46618
upperneck 25.4464 -4.59018 5.66007
head 9.69696 -2.0855 2.58894
rclavicle -7.51406e-014 1.53064e-014
rhumerus -29.0698 -18.1991 -76.7433
rradius 24.6908
rwrist -368.11
rhand -15.4545 -24.5363
rfingers 7.12502
rthumb 10.7264 -54.2425
lclavicle -7.51406e-014 1.53064e-014
lhumerus -42.7993 27.9356 73.6195
lradius 14.4019
lwrist -18.7812
lhand 4.37303 -0.876356
lfingers 7.12502
lthumb 29.7718 26.752
rfemur 23.8664 5.95528 31.218
rtibia 7.9329
rfoot -3.90871 2.35799
rtoes -3.08475
lfemur -25.597 0.642147 -10.5934
ltibia 27.8973
lfoot -9.84676 6.02727
ltoes 9.98893
